<svg width="46" height="45" viewBox="0 0 46 45" fill="none" xmlns="http://www.w3.org/2000/svg">
<g clip-path="url(#clip0_378_1421)">
<mask id="mask0_378_1421" style="mask-type:luminance" maskUnits="userSpaceOnUse" x="0" y="0" width="46" height="45">
<path d="M45.6667 0H0.666687V45H45.6667V0Z" fill="white"/>
</mask>
<g mask="url(#mask0_378_1421)">
<path d="M23.1667 4.05375C29.1742 4.05375 29.8867 4.07625 32.2586 4.185C34.7111 4.2975 37.2367 4.85625 39.0236 6.6431C40.8273 8.44685 41.3692 10.9481 41.4817 13.4081C41.5904 15.78 41.6129 16.4925 41.6129 22.5C41.6129 28.5075 41.5904 29.22 41.4817 31.5919C41.371 34.0312 40.7992 36.5812 39.0236 38.3569C37.2198 40.1606 34.7204 40.7025 32.2586 40.815C29.8867 40.9238 29.1742 40.9463 23.1667 40.9463C17.1592 40.9463 16.4467 40.9238 14.0748 40.815C11.6542 40.7044 9.07044 40.1194 7.30979 38.3569C5.51544 36.5625 4.96419 34.0369 4.85169 31.5919C4.74294 29.22 4.72044 28.5075 4.72044 22.5C4.72044 16.4925 4.74294 15.78 4.85169 13.4081C4.96231 10.9781 5.53979 8.4131 7.30979 6.6431C9.10979 4.84315 11.6204 4.2975 14.0748 4.185C16.4467 4.07625 17.1592 4.05375 23.1667 4.05375ZM23.1667 0C17.056 0 16.2892 0.02625 13.8892 0.135C10.4111 0.294375 6.95729 1.26187 4.44294 3.77625C1.91919 6.3 0.961062 9.74625 0.801687 13.2225C0.692937 15.6225 0.666687 16.3894 0.666687 22.5C0.666687 28.6106 0.692937 29.3775 0.801687 31.7775C0.961062 35.2519 1.93231 38.715 4.44294 41.2237C6.96479 43.7456 10.4167 44.7057 13.8892 44.865C16.2892 44.9735 17.056 45 23.1667 45C29.2773 45 30.0442 44.9735 32.4442 44.865C35.9204 44.7057 39.3779 43.7362 41.8904 41.2237C44.4161 38.6981 45.3724 35.2537 45.5317 31.7775C45.6402 29.3775 45.6667 28.6106 45.6667 22.5C45.6667 16.3894 45.6402 15.6225 45.5317 13.2225C45.3724 9.7444 44.4029 6.28875 41.8904 3.77625C39.3723 1.25812 35.911 0.2925 32.4442 0.135C30.0442 0.02625 29.2773 0 23.1667 0Z" fill="#FFEDE2"/>
<path d="M23.1667 10.9463C16.7861 10.9463 11.6129 16.1194 11.6129 22.5C11.6129 28.8807 16.7861 34.0538 23.1667 34.0538C29.5473 34.0538 34.7204 28.8807 34.7204 22.5C34.7204 16.1194 29.5473 10.9463 23.1667 10.9463ZM23.1667 30C19.0248 30 15.6667 26.6419 15.6667 22.5C15.6667 18.3582 19.0248 15 23.1667 15C27.3086 15 30.6667 18.3582 30.6667 22.5C30.6667 26.6419 27.3086 30 23.1667 30Z" fill="#FFEDE2"/>
<path d="M35.1779 13.1887C36.6691 13.1887 37.8779 11.9799 37.8779 10.4887C37.8779 8.99752 36.6691 7.7887 35.1779 7.7887C33.6868 7.7887 32.4779 8.99752 32.4779 10.4887C32.4779 11.9799 33.6868 13.1887 35.1779 13.1887Z" fill="#FFEDE2"/>
</g>
</g>
<defs>
<clipPath id="clip0_378_1421">
<rect width="45" height="45" fill="white" transform="translate(0.666687)"/>
</clipPath>
</defs>
</svg>
