<svg width="39" height="45" viewBox="0 0 39 45" fill="none" xmlns="http://www.w3.org/2000/svg">
<path d="M36.756 10.5421C34.5217 10.0615 32.4984 8.87588 30.9812 7.15801C29.4639 5.44014 28.532 3.27987 28.3213 0.99212V0H20.6138V30.758C20.6091 32.1197 20.1801 33.4456 19.3872 34.5495C18.5944 35.6534 17.4775 36.4798 16.1935 36.9125C14.9095 37.3452 13.5229 37.3625 12.2286 36.9619C10.9343 36.5613 9.79741 35.763 8.9776 34.6792C8.14506 33.5773 7.68323 32.2373 7.65907 30.8536C7.63492 29.47 8.04971 28.1145 8.84328 26.9839C9.63686 25.8532 10.768 25.0061 12.0726 24.5655C13.3772 24.1248 14.7875 24.1134 16.0989 24.533V16.6591C13.1745 16.2525 10.1967 16.7754 7.5823 18.1544C4.96786 19.5334 2.84747 21.6996 1.5177 24.3501C0.187933 27.0006 -0.284693 30.0027 0.16593 32.9366C0.616553 35.8705 1.96789 38.5893 4.03091 40.7129C5.99831 42.7371 8.52093 44.1259 11.2768 44.7019C14.0326 45.278 16.8967 45.0152 19.5033 43.9472C22.11 42.8791 24.341 41.0542 25.9116 38.7055C27.4822 36.3567 28.3212 33.5906 28.3213 30.7602V15.0438C31.4362 17.283 35.171 18.4837 39 18.4768V10.7761C38.2459 10.777 37.4938 10.6986 36.756 10.5421Z" fill="#FFEDE2"/>
</svg>
