<svg width="66" height="45" viewBox="0 0 66 45" fill="none" xmlns="http://www.w3.org/2000/svg">
<path d="M63.9738 7.02625C63.2263 4.261 61.0244 2.08126 58.2267 1.34138C53.1594 5.97216e-07 32.8333 0 32.8333 0C32.8333 0 12.5073 5.97216e-07 7.43727 1.34138C4.6423 2.08126 2.44043 4.25834 1.69293 7.02625C0.333344 12.0404 0.333344 22.5 0.333344 22.5C0.333344 22.5 0.333344 32.9595 1.69293 37.9737C2.44043 40.739 4.6423 42.9187 7.44001 43.6586C12.5073 45 32.8333 45 32.8333 45C32.8333 45 53.1594 45 58.2294 43.6586C61.0244 42.9187 63.2263 40.7417 63.9765 37.9737C65.3333 32.9595 65.3333 22.5 65.3333 22.5C65.3333 22.5 65.3333 12.0404 63.9738 7.02625ZM26.1871 31.9988V13.0013L43.1738 22.5L26.1871 31.9988Z" fill="#FFEDE2"/>
</svg>
